ISO-10303-21;
HEADER;
/* Generated by software containing ST-Developer
 * from STEP Tools, Inc. (www.steptools.com) 
 */

FILE_DESCRIPTION(
/* description */ (''),
/* implementation_level */ '2;1');

FILE_NAME(
/* name */ 'cap.step',
/* time_stamp */ '2026-10-08T05:29:26+02:00',
/* author */ (''),
/* organization */ (''),
/* preprocessor_version */ 'ST-DEVELOPER v20.2',
/* originating_system */ 'Autodesk Translation Framework v15.15.0.0',
/* authorisation */ '');

FILE_SCHEMA (('AUTOMOTIVE_DESIGN { 1 0 10303 214 3 1 1 }'));
ENDSEC;

DATA;
#10=MECHANICAL_DESIGN_GEOMETRIC_PRESENTATION_REPRESENTATION('',(#13),#847);
#11=SHAPE_REPRESENTATION_RELATIONSHIP('SRR','None',#854,#12);
#12=ADVANCED_BREP_SHAPE_REPRESENTATION('',(#14),#846);
#13=STYLED_ITEM('',(#863),#14);
#14=MANIFOLD_SOLID_BREP('Body1',#531);
#15=FACE_BOUND('',#65,.T.);
#16=FACE_BOUND('',#66,.T.);
#17=FACE_OUTER_BOUND('',#43,.T.);
#18=FACE_OUTER_BOUND('',#44,.T.);
#19=FACE_OUTER_BOUND('',#45,.T.);
#20=FACE_OUTER_BOUND('',#46,.T.);
#21=FACE_OUTER_BOUND('',#47,.T.);
#22=FACE_OUTER_BOUND('',#48,.T.);
#23=FACE_OUTER_BOUND('',#49,.T.);
#24=FACE_OUTER_BOUND('',#50,.T.);
#25=FACE_OUTER_BOUND('',#51,.T.);
#26=FACE_OUTER_BOUND('',#52,.T.);
#27=FACE_OUTER_BOUND('',#53,.T.);
#28=FACE_OUTER_BOUND('',#54,.T.);
#29=FACE_OUTER_BOUND('',#55,.T.);
#30=FACE_OUTER_BOUND('',#56,.T.);
#31=FACE_OUTER_BOUND('',#57,.T.);
#32=FACE_OUTER_BOUND('',#58,.T.);
#33=FACE_OUTER_BOUND('',#59,.T.);
#34=FACE_OUTER_BOUND('',#60,.T.);
#35=FACE_OUTER_BOUND('',#61,.T.);
#36=FACE_OUTER_BOUND('',#62,.T.);
#37=FACE_OUTER_BOUND('',#63,.T.);
#38=FACE_OUTER_BOUND('',#64,.T.);
#39=FACE_OUTER_BOUND('',#67,.T.);
#40=FACE_OUTER_BOUND('',#68,.T.);
#41=FACE_OUTER_BOUND('',#69,.T.);
#42=FACE_OUTER_BOUND('',#70,.T.);
#43=EDGE_LOOP('',(#335,#336,#337,#338));
#44=EDGE_LOOP('',(#339,#340,#341,#342));
#45=EDGE_LOOP('',(#343,#344,#345,#346));
#46=EDGE_LOOP('',(#347,#348,#349,#350,#351,#352,#353,#354));
#47=EDGE_LOOP('',(#355,#356,#357,#358));
#48=EDGE_LOOP('',(#359,#360,#361,#362,#363,#364,#365,#366,#367,#368,#369,
#370));
#49=EDGE_LOOP('',(#371,#372,#373,#374));
#50=EDGE_LOOP('',(#375,#376,#377,#378));
#51=EDGE_LOOP('',(#379,#380,#381,#382,#383,#384));
#52=EDGE_LOOP('',(#385,#386,#387,#388));
#53=EDGE_LOOP('',(#389,#390,#391,#392,#393,#394,#395,#396,#397,#398,#399,
#400));
#54=EDGE_LOOP('',(#401,#402,#403,#404));
#55=EDGE_LOOP('',(#405,#406,#407,#408));
#56=EDGE_LOOP('',(#409,#410,#411,#412));
#57=EDGE_LOOP('',(#413,#414,#415,#416));
#58=EDGE_LOOP('',(#417,#418,#419,#420));
#59=EDGE_LOOP('',(#421,#422,#423,#424));
#60=EDGE_LOOP('',(#425,#426,#427,#428));
#61=EDGE_LOOP('',(#429,#430,#431,#432));
#62=EDGE_LOOP('',(#433,#434,#435,#436));
#63=EDGE_LOOP('',(#437,#438,#439,#440));
#64=EDGE_LOOP('',(#441,#442,#443,#444,#445,#446,#447,#448));
#65=EDGE_LOOP('',(#449,#450,#451,#452));
#66=EDGE_LOOP('',(#453,#454,#455,#456));
#67=EDGE_LOOP('',(#457,#458,#459,#460,#461,#462));
#68=EDGE_LOOP('',(#463,#464,#465,#466));
#69=EDGE_LOOP('',(#467,#468,#469,#470,#471,#472));
#70=EDGE_LOOP('',(#473,#474,#475,#476,#477,#478));
#71=LINE('',#701,#143);
#72=LINE('',#703,#144);
#73=LINE('',#705,#145);
#74=LINE('',#706,#146);
#75=LINE('',#710,#147);
#76=LINE('',#712,#148);
#77=LINE('',#714,#149);
#78=LINE('',#715,#150);
#79=LINE('',#719,#151);
#80=LINE('',#721,#152);
#81=LINE('',#723,#153);
#82=LINE('',#724,#154);
#83=LINE('',#726,#155);
#84=LINE('',#728,#156);
#85=LINE('',#729,#157);
#86=LINE('',#731,#158);
#87=LINE('',#732,#159);
#88=LINE('',#734,#160);
#89=LINE('',#737,#161);
#90=LINE('',#739,#162);
#91=LINE('',#741,#163);
#92=LINE('',#743,#164);
#93=LINE('',#744,#165);
#94=LINE('',#746,#166);
#95=LINE('',#748,#167);
#96=LINE('',#749,#168);
#97=LINE('',#752,#169);
#98=LINE('',#754,#170);
#99=LINE('',#755,#171);
#100=LINE('',#758,#172);
#101=LINE('',#760,#173);
#102=LINE('',#761,#174);
#103=LINE('',#764,#175);
#104=LINE('',#766,#176);
#105=LINE('',#767,#177);
#106=LINE('',#770,#178);
#107=LINE('',#771,#179);
#108=LINE('',#774,#180);
#109=LINE('',#775,#181);
#110=LINE('',#777,#182);
#111=LINE('',#779,#183);
#112=LINE('',#780,#184);
#113=LINE('',#784,#185);
#114=LINE('',#786,#186);
#115=LINE('',#788,#187);
#116=LINE('',#789,#188);
#117=LINE('',#793,#189);
#118=LINE('',#795,#190);
#119=LINE('',#797,#191);
#120=LINE('',#798,#192);
#121=LINE('',#800,#193);
#122=LINE('',#801,#194);
#123=LINE('',#803,#195);
#124=LINE('',#804,#196);
#125=LINE('',#809,#197);
#126=LINE('',#811,#198);
#127=LINE('',#813,#199);
#128=LINE('',#814,#200);
#129=LINE('',#818,#201);
#130=LINE('',#820,#202);
#131=LINE('',#822,#203);
#132=LINE('',#823,#204);
#133=LINE('',#825,#205);
#134=LINE('',#826,#206);
#135=LINE('',#828,#207);
#136=LINE('',#829,#208);
#137=LINE('',#833,#209);
#138=LINE('',#835,#210);
#139=LINE('',#836,#211);
#140=LINE('',#837,#212);
#141=LINE('',#839,#213);
#142=LINE('',#841,#214);
#143=VECTOR('',#575,10.);
#144=VECTOR('',#576,10.);
#145=VECTOR('',#577,10.);
#146=VECTOR('',#578,10.);
#147=VECTOR('',#581,10.);
#148=VECTOR('',#582,10.);
#149=VECTOR('',#583,10.);
#150=VECTOR('',#584,10.);
#151=VECTOR('',#587,10.);
#152=VECTOR('',#588,10.);
#153=VECTOR('',#589,10.);
#154=VECTOR('',#590,10.);
#155=VECTOR('',#593,10.);
#156=VECTOR('',#594,10.);
#157=VECTOR('',#595,10.);
#158=VECTOR('',#596,10.);
#159=VECTOR('',#597,10.);
#160=VECTOR('',#600,10.);
#161=VECTOR('',#603,10.);
#162=VECTOR('',#604,10.);
#163=VECTOR('',#605,10.);
#164=VECTOR('',#606,10.);
#165=VECTOR('',#607,10.);
#166=VECTOR('',#608,10.);
#167=VECTOR('',#609,10.);
#168=VECTOR('',#610,10.);
#169=VECTOR('',#613,10.);
#170=VECTOR('',#614,10.);
#171=VECTOR('',#615,10.);
#172=VECTOR('',#618,10.);
#173=VECTOR('',#619,10.);
#174=VECTOR('',#620,10.);
#175=VECTOR('',#623,10.);
#176=VECTOR('',#624,10.);
#177=VECTOR('',#625,10.);
#178=VECTOR('',#628,10.);
#179=VECTOR('',#629,10.);
#180=VECTOR('',#632,10.);
#181=VECTOR('',#633,10.);
#182=VECTOR('',#634,10.);
#183=VECTOR('',#635,10.);
#184=VECTOR('',#636,10.);
#185=VECTOR('',#639,10.);
#186=VECTOR('',#640,10.);
#187=VECTOR('',#641,10.);
#188=VECTOR('',#642,10.);
#189=VECTOR('',#645,10.);
#190=VECTOR('',#646,10.);
#191=VECTOR('',#647,10.);
#192=VECTOR('',#648,10.);
#193=VECTOR('',#651,10.);
#194=VECTOR('',#652,10.);
#195=VECTOR('',#655,10.);
#196=VECTOR('',#656,10.);
#197=VECTOR('',#661,10.);
#198=VECTOR('',#662,10.);
#199=VECTOR('',#663,10.);
#200=VECTOR('',#664,10.);
#201=VECTOR('',#667,10.);
#202=VECTOR('',#668,10.);
#203=VECTOR('',#669,10.);
#204=VECTOR('',#670,10.);
#205=VECTOR('',#673,10.);
#206=VECTOR('',#674,10.);
#207=VECTOR('',#677,10.);
#208=VECTOR('',#678,10.);
#209=VECTOR('',#683,10.);
#210=VECTOR('',#684,10.);
#211=VECTOR('',#685,10.);
#212=VECTOR('',#686,10.);
#213=VECTOR('',#689,10.);
#214=VECTOR('',#692,10.);
#215=VERTEX_POINT('',#699);
#216=VERTEX_POINT('',#700);
#217=VERTEX_POINT('',#702);
#218=VERTEX_POINT('',#704);
#219=VERTEX_POINT('',#708);
#220=VERTEX_POINT('',#709);
#221=VERTEX_POINT('',#711);
#222=VERTEX_POINT('',#713);
#223=VERTEX_POINT('',#717);
#224=VERTEX_POINT('',#718);
#225=VERTEX_POINT('',#720);
#226=VERTEX_POINT('',#722);
#227=VERTEX_POINT('',#727);
#228=VERTEX_POINT('',#730);
#229=VERTEX_POINT('',#736);
#230=VERTEX_POINT('',#738);
#231=VERTEX_POINT('',#740);
#232=VERTEX_POINT('',#742);
#233=VERTEX_POINT('',#745);
#234=VERTEX_POINT('',#747);
#235=VERTEX_POINT('',#751);
#236=VERTEX_POINT('',#753);
#237=VERTEX_POINT('',#757);
#238=VERTEX_POINT('',#759);
#239=VERTEX_POINT('',#763);
#240=VERTEX_POINT('',#765);
#241=VERTEX_POINT('',#769);
#242=VERTEX_POINT('',#773);
#243=VERTEX_POINT('',#776);
#244=VERTEX_POINT('',#778);
#245=VERTEX_POINT('',#782);
#246=VERTEX_POINT('',#783);
#247=VERTEX_POINT('',#785);
#248=VERTEX_POINT('',#787);
#249=VERTEX_POINT('',#791);
#250=VERTEX_POINT('',#792);
#251=VERTEX_POINT('',#794);
#252=VERTEX_POINT('',#796);
#253=VERTEX_POINT('',#807);
#254=VERTEX_POINT('',#808);
#255=VERTEX_POINT('',#810);
#256=VERTEX_POINT('',#812);
#257=VERTEX_POINT('',#816);
#258=VERTEX_POINT('',#817);
#259=VERTEX_POINT('',#819);
#260=VERTEX_POINT('',#821);
#261=VERTEX_POINT('',#832);
#262=VERTEX_POINT('',#834);
#263=EDGE_CURVE('',#215,#216,#71,.T.);
#264=EDGE_CURVE('',#217,#215,#72,.T.);
#265=EDGE_CURVE('',#218,#217,#73,.T.);
#266=EDGE_CURVE('',#216,#218,#74,.T.);
#267=EDGE_CURVE('',#219,#220,#75,.T.);
#268=EDGE_CURVE('',#221,#219,#76,.T.);
#269=EDGE_CURVE('',#222,#221,#77,.T.);
#270=EDGE_CURVE('',#220,#222,#78,.T.);
#271=EDGE_CURVE('',#223,#224,#79,.T.);
#272=EDGE_CURVE('',#225,#223,#80,.T.);
#273=EDGE_CURVE('',#226,#225,#81,.T.);
#274=EDGE_CURVE('',#224,#226,#82,.T.);
#275=EDGE_CURVE('',#218,#221,#83,.T.);
#276=EDGE_CURVE('',#227,#219,#84,.T.);
#277=EDGE_CURVE('',#227,#226,#85,.T.);
#278=EDGE_CURVE('',#225,#228,#86,.T.);
#279=EDGE_CURVE('',#216,#228,#87,.T.);
#280=EDGE_CURVE('',#217,#222,#88,.T.);
#281=EDGE_CURVE('',#220,#229,#89,.T.);
#282=EDGE_CURVE('',#229,#230,#90,.T.);
#283=EDGE_CURVE('',#230,#231,#91,.T.);
#284=EDGE_CURVE('',#231,#232,#92,.T.);
#285=EDGE_CURVE('',#232,#215,#93,.T.);
#286=EDGE_CURVE('',#228,#233,#94,.T.);
#287=EDGE_CURVE('',#233,#234,#95,.T.);
#288=EDGE_CURVE('',#234,#227,#96,.T.);
#289=EDGE_CURVE('',#235,#230,#97,.T.);
#290=EDGE_CURVE('',#236,#235,#98,.T.);
#291=EDGE_CURVE('',#236,#231,#99,.T.);
#292=EDGE_CURVE('',#237,#235,#100,.T.);
#293=EDGE_CURVE('',#238,#237,#101,.T.);
#294=EDGE_CURVE('',#238,#236,#102,.T.);
#295=EDGE_CURVE('',#229,#239,#103,.T.);
#296=EDGE_CURVE('',#239,#240,#104,.T.);
#297=EDGE_CURVE('',#240,#237,#105,.T.);
#298=EDGE_CURVE('',#241,#240,#106,.T.);
#299=EDGE_CURVE('',#241,#238,#107,.T.);
#300=EDGE_CURVE('',#224,#242,#108,.T.);
#301=EDGE_CURVE('',#242,#239,#109,.T.);
#302=EDGE_CURVE('',#232,#243,#110,.T.);
#303=EDGE_CURVE('',#243,#244,#111,.T.);
#304=EDGE_CURVE('',#244,#223,#112,.T.);
#305=EDGE_CURVE('',#245,#246,#113,.T.);
#306=EDGE_CURVE('',#247,#245,#114,.T.);
#307=EDGE_CURVE('',#247,#248,#115,.T.);
#308=EDGE_CURVE('',#246,#248,#116,.T.);
#309=EDGE_CURVE('',#249,#250,#117,.T.);
#310=EDGE_CURVE('',#251,#250,#118,.T.);
#311=EDGE_CURVE('',#251,#252,#119,.T.);
#312=EDGE_CURVE('',#252,#249,#120,.T.);
#313=EDGE_CURVE('',#250,#246,#121,.T.);
#314=EDGE_CURVE('',#245,#249,#122,.T.);
#315=EDGE_CURVE('',#247,#252,#123,.T.);
#316=EDGE_CURVE('',#248,#251,#124,.T.);
#317=EDGE_CURVE('',#253,#254,#125,.T.);
#318=EDGE_CURVE('',#254,#255,#126,.T.);
#319=EDGE_CURVE('',#256,#255,#127,.T.);
#320=EDGE_CURVE('',#256,#253,#128,.T.);
#321=EDGE_CURVE('',#257,#258,#129,.T.);
#322=EDGE_CURVE('',#259,#257,#130,.T.);
#323=EDGE_CURVE('',#260,#259,#131,.T.);
#324=EDGE_CURVE('',#260,#258,#132,.T.);
#325=EDGE_CURVE('',#253,#257,#133,.T.);
#326=EDGE_CURVE('',#258,#254,#134,.T.);
#327=EDGE_CURVE('',#255,#260,#135,.T.);
#328=EDGE_CURVE('',#256,#259,#136,.T.);
#329=EDGE_CURVE('',#242,#261,#137,.T.);
#330=EDGE_CURVE('',#261,#262,#138,.T.);
#331=EDGE_CURVE('',#262,#244,#139,.T.);
#332=EDGE_CURVE('',#243,#241,#140,.T.);
#333=EDGE_CURVE('',#262,#233,#141,.T.);
#334=EDGE_CURVE('',#261,#234,#142,.T.);
#335=ORIENTED_EDGE('',*,*,#263,.F.);
#336=ORIENTED_EDGE('',*,*,#264,.F.);
#337=ORIENTED_EDGE('',*,*,#265,.F.);
#338=ORIENTED_EDGE('',*,*,#266,.F.);
#339=ORIENTED_EDGE('',*,*,#267,.F.);
#340=ORIENTED_EDGE('',*,*,#268,.F.);
#341=ORIENTED_EDGE('',*,*,#269,.F.);
#342=ORIENTED_EDGE('',*,*,#270,.F.);
#343=ORIENTED_EDGE('',*,*,#271,.F.);
#344=ORIENTED_EDGE('',*,*,#272,.F.);
#345=ORIENTED_EDGE('',*,*,#273,.F.);
#346=ORIENTED_EDGE('',*,*,#274,.F.);
#347=ORIENTED_EDGE('',*,*,#266,.T.);
#348=ORIENTED_EDGE('',*,*,#275,.T.);
#349=ORIENTED_EDGE('',*,*,#268,.T.);
#350=ORIENTED_EDGE('',*,*,#276,.F.);
#351=ORIENTED_EDGE('',*,*,#277,.T.);
#352=ORIENTED_EDGE('',*,*,#273,.T.);
#353=ORIENTED_EDGE('',*,*,#278,.T.);
#354=ORIENTED_EDGE('',*,*,#279,.F.);
#355=ORIENTED_EDGE('',*,*,#265,.T.);
#356=ORIENTED_EDGE('',*,*,#280,.T.);
#357=ORIENTED_EDGE('',*,*,#269,.T.);
#358=ORIENTED_EDGE('',*,*,#275,.F.);
#359=ORIENTED_EDGE('',*,*,#276,.T.);
#360=ORIENTED_EDGE('',*,*,#267,.T.);
#361=ORIENTED_EDGE('',*,*,#281,.T.);
#362=ORIENTED_EDGE('',*,*,#282,.T.);
#363=ORIENTED_EDGE('',*,*,#283,.T.);
#364=ORIENTED_EDGE('',*,*,#284,.T.);
#365=ORIENTED_EDGE('',*,*,#285,.T.);
#366=ORIENTED_EDGE('',*,*,#263,.T.);
#367=ORIENTED_EDGE('',*,*,#279,.T.);
#368=ORIENTED_EDGE('',*,*,#286,.T.);
#369=ORIENTED_EDGE('',*,*,#287,.T.);
#370=ORIENTED_EDGE('',*,*,#288,.T.);
#371=ORIENTED_EDGE('',*,*,#283,.F.);
#372=ORIENTED_EDGE('',*,*,#289,.F.);
#373=ORIENTED_EDGE('',*,*,#290,.F.);
#374=ORIENTED_EDGE('',*,*,#291,.T.);
#375=ORIENTED_EDGE('',*,*,#290,.T.);
#376=ORIENTED_EDGE('',*,*,#292,.F.);
#377=ORIENTED_EDGE('',*,*,#293,.F.);
#378=ORIENTED_EDGE('',*,*,#294,.T.);
#379=ORIENTED_EDGE('',*,*,#282,.F.);
#380=ORIENTED_EDGE('',*,*,#295,.T.);
#381=ORIENTED_EDGE('',*,*,#296,.T.);
#382=ORIENTED_EDGE('',*,*,#297,.T.);
#383=ORIENTED_EDGE('',*,*,#292,.T.);
#384=ORIENTED_EDGE('',*,*,#289,.T.);
#385=ORIENTED_EDGE('',*,*,#297,.F.);
#386=ORIENTED_EDGE('',*,*,#298,.F.);
#387=ORIENTED_EDGE('',*,*,#299,.T.);
#388=ORIENTED_EDGE('',*,*,#293,.T.);
#389=ORIENTED_EDGE('',*,*,#300,.T.);
#390=ORIENTED_EDGE('',*,*,#301,.T.);
#391=ORIENTED_EDGE('',*,*,#295,.F.);
#392=ORIENTED_EDGE('',*,*,#281,.F.);
#393=ORIENTED_EDGE('',*,*,#270,.T.);
#394=ORIENTED_EDGE('',*,*,#280,.F.);
#395=ORIENTED_EDGE('',*,*,#264,.T.);
#396=ORIENTED_EDGE('',*,*,#285,.F.);
#397=ORIENTED_EDGE('',*,*,#302,.T.);
#398=ORIENTED_EDGE('',*,*,#303,.T.);
#399=ORIENTED_EDGE('',*,*,#304,.T.);
#400=ORIENTED_EDGE('',*,*,#271,.T.);
#401=ORIENTED_EDGE('',*,*,#305,.F.);
#402=ORIENTED_EDGE('',*,*,#306,.F.);
#403=ORIENTED_EDGE('',*,*,#307,.T.);
#404=ORIENTED_EDGE('',*,*,#308,.F.);
#405=ORIENTED_EDGE('',*,*,#309,.T.);
#406=ORIENTED_EDGE('',*,*,#310,.F.);
#407=ORIENTED_EDGE('',*,*,#311,.T.);
#408=ORIENTED_EDGE('',*,*,#312,.T.);
#409=ORIENTED_EDGE('',*,*,#305,.T.);
#410=ORIENTED_EDGE('',*,*,#313,.F.);
#411=ORIENTED_EDGE('',*,*,#309,.F.);
#412=ORIENTED_EDGE('',*,*,#314,.F.);
#413=ORIENTED_EDGE('',*,*,#307,.F.);
#414=ORIENTED_EDGE('',*,*,#315,.T.);
#415=ORIENTED_EDGE('',*,*,#311,.F.);
#416=ORIENTED_EDGE('',*,*,#316,.F.);
#417=ORIENTED_EDGE('',*,*,#306,.T.);
#418=ORIENTED_EDGE('',*,*,#314,.T.);
#419=ORIENTED_EDGE('',*,*,#312,.F.);
#420=ORIENTED_EDGE('',*,*,#315,.F.);
#421=ORIENTED_EDGE('',*,*,#317,.T.);
#422=ORIENTED_EDGE('',*,*,#318,.T.);
#423=ORIENTED_EDGE('',*,*,#319,.F.);
#424=ORIENTED_EDGE('',*,*,#320,.T.);
#425=ORIENTED_EDGE('',*,*,#321,.F.);
#426=ORIENTED_EDGE('',*,*,#322,.F.);
#427=ORIENTED_EDGE('',*,*,#323,.F.);
#428=ORIENTED_EDGE('',*,*,#324,.T.);
#429=ORIENTED_EDGE('',*,*,#317,.F.);
#430=ORIENTED_EDGE('',*,*,#325,.T.);
#431=ORIENTED_EDGE('',*,*,#321,.T.);
#432=ORIENTED_EDGE('',*,*,#326,.T.);
#433=ORIENTED_EDGE('',*,*,#319,.T.);
#434=ORIENTED_EDGE('',*,*,#327,.T.);
#435=ORIENTED_EDGE('',*,*,#323,.T.);
#436=ORIENTED_EDGE('',*,*,#328,.F.);
#437=ORIENTED_EDGE('',*,*,#320,.F.);
#438=ORIENTED_EDGE('',*,*,#328,.T.);
#439=ORIENTED_EDGE('',*,*,#322,.T.);
#440=ORIENTED_EDGE('',*,*,#325,.F.);
#441=ORIENTED_EDGE('',*,*,#329,.T.);
#442=ORIENTED_EDGE('',*,*,#330,.T.);
#443=ORIENTED_EDGE('',*,*,#331,.T.);
#444=ORIENTED_EDGE('',*,*,#303,.F.);
#445=ORIENTED_EDGE('',*,*,#332,.T.);
#446=ORIENTED_EDGE('',*,*,#298,.T.);
#447=ORIENTED_EDGE('',*,*,#296,.F.);
#448=ORIENTED_EDGE('',*,*,#301,.F.);
#449=ORIENTED_EDGE('',*,*,#313,.T.);
#450=ORIENTED_EDGE('',*,*,#308,.T.);
#451=ORIENTED_EDGE('',*,*,#316,.T.);
#452=ORIENTED_EDGE('',*,*,#310,.T.);
#453=ORIENTED_EDGE('',*,*,#326,.F.);
#454=ORIENTED_EDGE('',*,*,#324,.F.);
#455=ORIENTED_EDGE('',*,*,#327,.F.);
#456=ORIENTED_EDGE('',*,*,#318,.F.);
#457=ORIENTED_EDGE('',*,*,#304,.F.);
#458=ORIENTED_EDGE('',*,*,#331,.F.);
#459=ORIENTED_EDGE('',*,*,#333,.T.);
#460=ORIENTED_EDGE('',*,*,#286,.F.);
#461=ORIENTED_EDGE('',*,*,#278,.F.);
#462=ORIENTED_EDGE('',*,*,#272,.T.);
#463=ORIENTED_EDGE('',*,*,#330,.F.);
#464=ORIENTED_EDGE('',*,*,#334,.T.);
#465=ORIENTED_EDGE('',*,*,#287,.F.);
#466=ORIENTED_EDGE('',*,*,#333,.F.);
#467=ORIENTED_EDGE('',*,*,#299,.F.);
#468=ORIENTED_EDGE('',*,*,#332,.F.);
#469=ORIENTED_EDGE('',*,*,#302,.F.);
#470=ORIENTED_EDGE('',*,*,#284,.F.);
#471=ORIENTED_EDGE('',*,*,#291,.F.);
#472=ORIENTED_EDGE('',*,*,#294,.F.);
#473=ORIENTED_EDGE('',*,*,#288,.F.);
#474=ORIENTED_EDGE('',*,*,#334,.F.);
#475=ORIENTED_EDGE('',*,*,#329,.F.);
#476=ORIENTED_EDGE('',*,*,#300,.F.);
#477=ORIENTED_EDGE('',*,*,#274,.T.);
#478=ORIENTED_EDGE('',*,*,#277,.F.);
#479=PLANE('',#545);
#480=PLANE('',#546);
#481=PLANE('',#547);
#482=PLANE('',#548);
#483=PLANE('',#549);
#484=PLANE('',#550);
#485=PLANE('',#551);
#486=PLANE('',#552);
#487=PLANE('',#553);
#488=PLANE('',#554);
#489=PLANE('',#555);
#490=PLANE('',#556);
#491=PLANE('',#557);
#492=PLANE('',#558);
#493=PLANE('',#559);
#494=PLANE('',#560);
#495=PLANE('',#561);
#496=PLANE('',#562);
#497=PLANE('',#563);
#498=PLANE('',#564);
#499=PLANE('',#565);
#500=PLANE('',#566);
#501=PLANE('',#567);
#502=PLANE('',#568);
#503=PLANE('',#569);
#504=PLANE('',#570);
#505=ADVANCED_FACE('',(#17),#479,.F.);
#506=ADVANCED_FACE('',(#18),#480,.F.);
#507=ADVANCED_FACE('',(#19),#481,.F.);
#508=ADVANCED_FACE('',(#20),#482,.T.);
#509=ADVANCED_FACE('',(#21),#483,.T.);
#510=ADVANCED_FACE('',(#22),#484,.T.);
#511=ADVANCED_FACE('',(#23),#485,.T.);
#512=ADVANCED_FACE('',(#24),#486,.T.);
#513=ADVANCED_FACE('',(#25),#487,.T.);
#514=ADVANCED_FACE('',(#26),#488,.T.);
#515=ADVANCED_FACE('',(#27),#489,.T.);
#516=ADVANCED_FACE('',(#28),#490,.F.);
#517=ADVANCED_FACE('',(#29),#491,.T.);
#518=ADVANCED_FACE('',(#30),#492,.T.);
#519=ADVANCED_FACE('',(#31),#493,.T.);
#520=ADVANCED_FACE('',(#32),#494,.T.);
#521=ADVANCED_FACE('',(#33),#495,.T.);
#522=ADVANCED_FACE('',(#34),#496,.F.);
#523=ADVANCED_FACE('',(#35),#497,.F.);
#524=ADVANCED_FACE('',(#36),#498,.F.);
#525=ADVANCED_FACE('',(#37),#499,.F.);
#526=ADVANCED_FACE('',(#38,#15,#16),#500,.T.);
#527=ADVANCED_FACE('',(#39),#501,.F.);
#528=ADVANCED_FACE('',(#40),#502,.F.);
#529=ADVANCED_FACE('',(#41),#503,.F.);
#530=ADVANCED_FACE('',(#42),#504,.F.);
#531=CLOSED_SHELL('',(#505,#506,#507,#508,#509,#510,#511,#512,#513,#514,
#515,#516,#517,#518,#519,#520,#521,#522,#523,#524,#525,#526,#527,#528,#529,
#530));
#532=DERIVED_UNIT_ELEMENT(#534,1.);
#533=DERIVED_UNIT_ELEMENT(#849,-3.);
#534=(
MASS_UNIT()
NAMED_UNIT(*)
SI_UNIT(.KILO.,.GRAM.)
);
#535=DERIVED_UNIT((#532,#533));
#536=MEASURE_REPRESENTATION_ITEM('density measure',
POSITIVE_RATIO_MEASURE(7850.),#535);
#537=PROPERTY_DEFINITION_REPRESENTATION(#542,#539);
#538=PROPERTY_DEFINITION_REPRESENTATION(#543,#540);
#539=REPRESENTATION('material name',(#541),#846);
#540=REPRESENTATION('density',(#536),#846);
#541=DESCRIPTIVE_REPRESENTATION_ITEM('Steel','Steel');
#542=PROPERTY_DEFINITION('material property','material name',#856);
#543=PROPERTY_DEFINITION('material property','density of part',#856);
#544=AXIS2_PLACEMENT_3D('',#697,#571,#572);
#545=AXIS2_PLACEMENT_3D('',#698,#573,#574);
#546=AXIS2_PLACEMENT_3D('',#707,#579,#580);
#547=AXIS2_PLACEMENT_3D('',#716,#585,#586);
#548=AXIS2_PLACEMENT_3D('',#725,#591,#592);
#549=AXIS2_PLACEMENT_3D('',#733,#598,#599);
#550=AXIS2_PLACEMENT_3D('',#735,#601,#602);
#551=AXIS2_PLACEMENT_3D('',#750,#611,#612);
#552=AXIS2_PLACEMENT_3D('',#756,#616,#617);
#553=AXIS2_PLACEMENT_3D('',#762,#621,#622);
#554=AXIS2_PLACEMENT_3D('',#768,#626,#627);
#555=AXIS2_PLACEMENT_3D('',#772,#630,#631);
#556=AXIS2_PLACEMENT_3D('',#781,#637,#638);
#557=AXIS2_PLACEMENT_3D('',#790,#643,#644);
#558=AXIS2_PLACEMENT_3D('',#799,#649,#650);
#559=AXIS2_PLACEMENT_3D('',#802,#653,#654);
#560=AXIS2_PLACEMENT_3D('',#805,#657,#658);
#561=AXIS2_PLACEMENT_3D('',#806,#659,#660);
#562=AXIS2_PLACEMENT_3D('',#815,#665,#666);
#563=AXIS2_PLACEMENT_3D('',#824,#671,#672);
#564=AXIS2_PLACEMENT_3D('',#827,#675,#676);
#565=AXIS2_PLACEMENT_3D('',#830,#679,#680);
#566=AXIS2_PLACEMENT_3D('',#831,#681,#682);
#567=AXIS2_PLACEMENT_3D('',#838,#687,#688);
#568=AXIS2_PLACEMENT_3D('',#840,#690,#691);
#569=AXIS2_PLACEMENT_3D('',#842,#693,#694);
#570=AXIS2_PLACEMENT_3D('',#843,#695,#696);
#571=DIRECTION('axis',(0.,0.,1.));
#572=DIRECTION('refdir',(1.,0.,0.));
#573=DIRECTION('center_axis',(0.,1.,0.));
#574=DIRECTION('ref_axis',(0.707106781186552,0.,-0.707106781186543));
#575=DIRECTION('',(0.,0.,1.));
#576=DIRECTION('',(-0.707106781186547,0.,-0.707106781186548));
#577=DIRECTION('',(0.707106781186552,0.,-0.707106781186543));
#578=DIRECTION('',(0.707106781186547,0.,0.707106781186548));
#579=DIRECTION('center_axis',(0.,-1.,0.));
#580=DIRECTION('ref_axis',(-0.707106781186552,0.,0.707106781186543));
#581=DIRECTION('',(0.,0.,-1.));
#582=DIRECTION('',(-0.707106781186547,0.,-0.707106781186548));
#583=DIRECTION('',(-0.707106781186552,0.,0.707106781186543));
#584=DIRECTION('',(0.707106781186547,0.,0.707106781186548));
#585=DIRECTION('center_axis',(0.707106781186548,0.,0.707106781186548));
#586=DIRECTION('ref_axis',(0.707106781186548,0.,-0.707106781186548));
#587=DIRECTION('',(0.,1.,0.));
#588=DIRECTION('',(0.707106781186547,0.,-0.707106781186547));
#589=DIRECTION('',(0.,-1.,0.));
#590=DIRECTION('',(-0.707106781186547,0.,0.707106781186547));
#591=DIRECTION('center_axis',(-0.707106781186548,0.,0.707106781186547));
#592=DIRECTION('ref_axis',(0.707106781186547,0.,0.707106781186548));
#593=DIRECTION('',(0.,1.,0.));
#594=DIRECTION('',(0.,1.,0.));
#595=DIRECTION('',(0.707106781186547,0.,0.707106781186548));
#596=DIRECTION('',(-0.707106781186547,0.,-0.707106781186548));
#597=DIRECTION('',(0.,1.,0.));
#598=DIRECTION('center_axis',(0.707106781186543,0.,0.707106781186552));
#599=DIRECTION('ref_axis',(0.707106781186552,0.,-0.707106781186543));
#600=DIRECTION('',(0.,1.,0.));
#601=DIRECTION('center_axis',(1.,0.,0.));
#602=DIRECTION('ref_axis',(0.,0.,-1.));
#603=DIRECTION('',(0.,1.,0.));
#604=DIRECTION('',(0.,0.,1.));
#605=DIRECTION('',(0.,-1.,0.));
#606=DIRECTION('',(0.,0.,-1.));
#607=DIRECTION('',(0.,1.,0.));
#608=DIRECTION('',(0.,0.,1.));
#609=DIRECTION('',(0.,1.,0.));
#610=DIRECTION('',(0.,0.,-1.));
#611=DIRECTION('center_axis',(0.707106781186548,0.,-0.707106781186548));
#612=DIRECTION('ref_axis',(-0.707106781186548,0.,-0.707106781186548));
#613=DIRECTION('',(-0.707106781186548,0.,-0.707106781186548));
#614=DIRECTION('',(0.,1.,0.));
#615=DIRECTION('',(-0.707106781186548,0.,-0.707106781186548));
#616=DIRECTION('center_axis',(0.707106781186548,0.,0.707106781186547));
#617=DIRECTION('ref_axis',(0.707106781186547,0.,-0.707106781186548));
#618=DIRECTION('',(0.707106781186547,0.,-0.707106781186548));
#619=DIRECTION('',(0.,1.,0.));
#620=DIRECTION('',(0.707106781186547,0.,-0.707106781186548));
#621=DIRECTION('center_axis',(0.,1.,0.));
#622=DIRECTION('ref_axis',(0.,0.,1.));
#623=DIRECTION('',(-0.707106781186547,0.,-0.707106781186548));
#624=DIRECTION('',(8.88178419700125E-17,0.,1.));
#625=DIRECTION('',(0.707106781186547,0.,0.707106781186548));
#626=DIRECTION('center_axis',(-0.707106781186548,0.,0.707106781186547));
#627=DIRECTION('ref_axis',(0.707106781186547,0.,0.707106781186548));
#628=DIRECTION('',(0.,1.,0.));
#629=DIRECTION('',(0.707106781186547,0.,0.707106781186548));
#630=DIRECTION('center_axis',(0.707106781186548,0.,-0.707106781186547));
#631=DIRECTION('ref_axis',(-0.707106781186547,0.,-0.707106781186548));
#632=DIRECTION('',(-0.707106781186547,0.,-0.707106781186548));
#633=DIRECTION('',(0.,1.,0.));
#634=DIRECTION('',(-0.707106781186547,0.,-0.707106781186548));
#635=DIRECTION('',(0.,1.,0.));
#636=DIRECTION('',(0.707106781186547,0.,0.707106781186548));
#637=DIRECTION('center_axis',(0.,1.,0.));
#638=DIRECTION('ref_axis',(1.,0.,0.));
#639=DIRECTION('',(0.707106781186548,0.,0.707106781186547));
#640=DIRECTION('',(0.,0.,1.));
#641=DIRECTION('',(0.707106781186549,0.,0.707106781186546));
#642=DIRECTION('',(-8.88178419700125E-17,0.,-1.));
#643=DIRECTION('center_axis',(0.,1.,0.));
#644=DIRECTION('ref_axis',(0.,0.,1.));
#645=DIRECTION('',(0.707106781186548,0.,0.707106781186547));
#646=DIRECTION('',(8.88178419700125E-17,0.,1.));
#647=DIRECTION('',(-0.707106781186549,0.,-0.707106781186546));
#648=DIRECTION('',(0.,0.,1.));
#649=DIRECTION('center_axis',(-0.707106781186547,0.,0.707106781186548));
#650=DIRECTION('ref_axis',(0.707106781186548,0.,0.707106781186547));
#651=DIRECTION('',(0.,-1.,0.));
#652=DIRECTION('',(0.,1.,0.));
#653=DIRECTION('center_axis',(0.707106781186546,0.,-0.707106781186549));
#654=DIRECTION('ref_axis',(-0.707106781186549,0.,-0.707106781186546));
#655=DIRECTION('',(0.,1.,0.));
#656=DIRECTION('',(0.,1.,0.));
#657=DIRECTION('center_axis',(-1.,0.,0.));
#658=DIRECTION('ref_axis',(0.,0.,1.));
#659=DIRECTION('center_axis',(0.,1.,0.));
#660=DIRECTION('ref_axis',(1.,0.,0.));
#661=DIRECTION('',(0.707106781186548,0.,0.707106781186547));
#662=DIRECTION('',(-8.88178419700125E-17,0.,-1.));
#663=DIRECTION('',(0.707106781186549,0.,0.707106781186546));
#664=DIRECTION('',(0.,0.,1.));
#665=DIRECTION('center_axis',(0.,1.,0.));
#666=DIRECTION('ref_axis',(0.,0.,1.));
#667=DIRECTION('',(0.707106781186548,0.,0.707106781186547));
#668=DIRECTION('',(0.,0.,1.));
#669=DIRECTION('',(-0.707106781186549,0.,-0.707106781186546));
#670=DIRECTION('',(8.88178419700125E-17,0.,1.));
#671=DIRECTION('center_axis',(0.707106781186547,0.,-0.707106781186548));
#672=DIRECTION('ref_axis',(0.707106781186548,0.,0.707106781186547));
#673=DIRECTION('',(0.,-1.,0.));
#674=DIRECTION('',(0.,1.,0.));
#675=DIRECTION('center_axis',(-0.707106781186546,0.,0.707106781186549));
#676=DIRECTION('ref_axis',(-0.707106781186549,0.,-0.707106781186546));
#677=DIRECTION('',(0.,-1.,0.));
#678=DIRECTION('',(0.,-1.,0.));
#679=DIRECTION('center_axis',(1.,0.,0.));
#680=DIRECTION('ref_axis',(0.,0.,1.));
#681=DIRECTION('center_axis',(-1.,0.,8.88178419700125E-17));
#682=DIRECTION('ref_axis',(8.88178419700125E-17,0.,1.));
#683=DIRECTION('',(8.88178419700125E-17,0.,1.));
#684=DIRECTION('',(0.,-1.,0.));
#685=DIRECTION('',(-8.88178419700125E-17,0.,-1.));
#686=DIRECTION('',(8.88178419700125E-17,0.,1.));
#687=DIRECTION('center_axis',(0.,-1.,0.));
#688=DIRECTION('ref_axis',(0.707106781186548,0.,-0.707106781186548));
#689=DIRECTION('',(0.707106781186547,0.,0.707106781186547));
#690=DIRECTION('center_axis',(-0.707106781186548,0.,0.707106781186548));
#691=DIRECTION('ref_axis',(0.,-1.,0.));
#692=DIRECTION('',(0.707106781186547,0.,0.707106781186547));
#693=DIRECTION('center_axis',(0.,1.,0.));
#694=DIRECTION('ref_axis',(0.,0.,1.));
#695=DIRECTION('center_axis',(0.,1.,0.));
#696=DIRECTION('ref_axis',(-0.707106781186548,0.,0.707106781186548));
#697=CARTESIAN_POINT('',(0.,0.,0.));
#698=CARTESIAN_POINT('Origin',(-12.0392155288553,-17.,52.6321749393702));
#699=CARTESIAN_POINT('',(-30.4100788349719,-17.,32.1399912896937));
#700=CARTESIAN_POINT('',(-30.4100788349719,-17.,34.2613116332534));
#701=CARTESIAN_POINT('',(-30.4100788349719,-17.,67.2162629216023));
#702=CARTESIAN_POINT('',(-10.9785553570755,-17.,51.5715147675904));
#703=CARTESIAN_POINT('',(-10.9785553570755,-17.,51.5715147675904));
#704=CARTESIAN_POINT('',(-12.0392155288553,-17.,52.6321749393702));
#705=CARTESIAN_POINT('',(-12.0392155288553,-17.,52.6321749393702));
#706=CARTESIAN_POINT('',(-21.2246471819136,-17.,43.4467432863119));
#707=CARTESIAN_POINT('Origin',(-10.9785553570755,17.,51.5715147675904));
#708=CARTESIAN_POINT('',(-30.4100788349719,17.,34.2613116332534));
#709=CARTESIAN_POINT('',(-30.4100788349719,17.,32.1399912896937));
#710=CARTESIAN_POINT('',(-30.4100788349719,17.,66.6859328357124));
#711=CARTESIAN_POINT('',(-12.0392155288553,17.,52.6321749393702));
#712=CARTESIAN_POINT('',(-21.2246471819136,17.,43.4467432863119));
#713=CARTESIAN_POINT('',(-10.9785553570755,17.,51.5715147675904));
#714=CARTESIAN_POINT('',(-11.5088854429654,17.,52.1018448534803));
#715=CARTESIAN_POINT('',(-10.9785553570755,17.,51.5715147675904));
#716=CARTESIAN_POINT('Origin',(-23.7064774184333,0.,38.8435927062325));
#717=CARTESIAN_POINT('',(-23.7064774184333,-7.5,38.8435927062325));
#718=CARTESIAN_POINT('',(-23.7064774184333,7.5,38.8435927062325));
#719=CARTESIAN_POINT('',(-23.7064774184333,0.,38.8435927062325));
#720=CARTESIAN_POINT('',(-24.7671375902131,-7.5,39.9042528780124));
#721=CARTESIAN_POINT('',(-28.6562248867392,-7.5,43.7933401745384));
#722=CARTESIAN_POINT('',(-24.7671375902131,7.5,39.9042528780124));
#723=CARTESIAN_POINT('',(-24.7671375902131,0.,39.9042528780124));
#724=CARTESIAN_POINT('',(-18.7567299501275,7.5,33.8938452379267));
#725=CARTESIAN_POINT('Origin',(-30.4100788349719,0.,34.2613116332536));
#726=CARTESIAN_POINT('',(-12.0392155288553,0.,52.6321749393702));
#727=CARTESIAN_POINT('',(-30.4100788349719,7.5,34.2613116332536));
#728=CARTESIAN_POINT('',(-30.4100788349719,0.,34.2613116332536));
#729=CARTESIAN_POINT('',(-31.8312488997118,7.5,32.8401415685137));
#730=CARTESIAN_POINT('',(-30.4100788349719,-7.5,34.2613116332536));
#731=CARTESIAN_POINT('',(-31.8312488997118,-7.5,32.8401415685137));
#732=CARTESIAN_POINT('',(-30.4100788349719,0.,34.2613116332536));
#733=CARTESIAN_POINT('Origin',(-12.0392155288553,0.,52.6321749393702));
#734=CARTESIAN_POINT('',(-10.9785553570755,0.,51.5715147675904));
#735=CARTESIAN_POINT('Origin',(-30.4100788349719,0.,81.8003509038343));
#736=CARTESIAN_POINT('',(-30.4100788349719,20.,32.139991289694));
#737=CARTESIAN_POINT('',(-30.4100788349719,0.,32.139991289694));
#738=CARTESIAN_POINT('',(-30.4100788349719,20.,81.8003509038343));
#739=CARTESIAN_POINT('',(-30.4100788349719,20.,70.3912869345749));
#740=CARTESIAN_POINT('',(-30.4100788349719,-20.,81.8003509038343));
#741=CARTESIAN_POINT('',(-30.4100788349719,0.,81.8003509038343));
#742=CARTESIAN_POINT('',(-30.4100788349719,-20.,32.139991289694));
#743=CARTESIAN_POINT('',(-30.4100788349719,-20.,70.3912869345749));
#744=CARTESIAN_POINT('',(-30.4100788349719,0.,32.139991289694));
#745=CARTESIAN_POINT('',(-30.4100788349719,-7.5,42.0394862263056));
#746=CARTESIAN_POINT('',(-30.4100788349719,-7.5,52.8496728674374));
#747=CARTESIAN_POINT('',(-30.4100788349719,7.5,42.0394862263056));
#748=CARTESIAN_POINT('',(-30.4100788349719,3.75,42.0394862263056));
#749=CARTESIAN_POINT('',(-30.4100788349719,7.5,47.8999253991315));
#750=CARTESIAN_POINT('Origin',(-2.84682737343018,0.,109.363602365376));
#751=CARTESIAN_POINT('',(-2.84682737343018,20.,109.363602365376));
#752=CARTESIAN_POINT('',(-30.4100788349719,20.,81.8003509038343));
#753=CARTESIAN_POINT('',(-2.84682737343018,-20.,109.363602365376));
#754=CARTESIAN_POINT('',(-2.84682737343019,0.,109.363602365376));
#755=CARTESIAN_POINT('',(-30.4100788349719,-20.,81.8003509038343));
#756=CARTESIAN_POINT('Origin',(-3.90748754521,0.,110.424262537156));
#757=CARTESIAN_POINT('',(-3.90748754521,20.,110.424262537156));
#758=CARTESIAN_POINT('',(-2.84682737343019,20.,109.363602365376));
#759=CARTESIAN_POINT('',(-3.90748754521,-20.,110.424262537156));
#760=CARTESIAN_POINT('',(-3.90748754521,0.,110.424262537156));
#761=CARTESIAN_POINT('',(-2.84682737343019,-20.,109.363602365376));
#762=CARTESIAN_POINT('Origin',(-17.519293083051,20.,70.3912869345749));
#763=CARTESIAN_POINT('',(-32.1917587926719,20.,30.358311331994));
#764=CARTESIAN_POINT('',(-32.1917587926719,20.,30.358311331994));
#765=CARTESIAN_POINT('',(-32.1917587926719,20.,82.139991289694));
#766=CARTESIAN_POINT('',(-32.1917587926719,20.,82.139991289694));
#767=CARTESIAN_POINT('',(-3.90748754521,20.,110.424262537156));
#768=CARTESIAN_POINT('Origin',(-32.1917587926719,0.,82.139991289694));
#769=CARTESIAN_POINT('',(-32.1917587926719,-20.,82.139991289694));
#770=CARTESIAN_POINT('',(-32.1917587926719,0.,82.139991289694));
#771=CARTESIAN_POINT('',(-3.90748754521,-20.,110.424262537156));
#772=CARTESIAN_POINT('Origin',(-10.9785553570755,0.,51.5715147675904));
#773=CARTESIAN_POINT('',(-32.1917587926719,7.5,30.358311331994));
#774=CARTESIAN_POINT('',(-21.5851570748737,7.5,40.9649130497922));
#775=CARTESIAN_POINT('',(-32.1917587926719,0.,30.358311331994));
#776=CARTESIAN_POINT('',(-32.1917587926719,-20.,30.358311331994));
#777=CARTESIAN_POINT('',(-32.1917587926719,-20.,30.358311331994));
#778=CARTESIAN_POINT('',(-32.1917587926719,-7.5,30.358311331994));
#779=CARTESIAN_POINT('',(-32.1917587926719,0.,30.358311331994));
#780=CARTESIAN_POINT('',(-21.5851570748737,-7.5,40.9649130497922));
#781=CARTESIAN_POINT('Origin',(-36.1917587926719,14.,59.139991289694));
#782=CARTESIAN_POINT('',(-40.1917587926719,14.,71.139991289694));
#783=CARTESIAN_POINT('',(-32.1917587926719,14.,79.139991289694));
#784=CARTESIAN_POINT('',(-40.1917587926719,14.,71.139991289694));
#785=CARTESIAN_POINT('',(-40.1917587926719,14.,39.139991289694));
#786=CARTESIAN_POINT('',(-40.1917587926719,14.,39.139991289694));
#787=CARTESIAN_POINT('',(-32.1917587926719,14.,47.1399912896939));
#788=CARTESIAN_POINT('',(-40.1917587926719,14.,39.139991289694));
#789=CARTESIAN_POINT('',(-32.1917587926719,14.,44.749151310844));
#790=CARTESIAN_POINT('Origin',(-36.1917587926719,16.,59.139991289694));
#791=CARTESIAN_POINT('',(-40.1917587926719,16.,71.139991289694));
#792=CARTESIAN_POINT('',(-32.1917587926719,16.,79.139991289694));
#793=CARTESIAN_POINT('',(-40.1917587926719,16.,71.139991289694));
#794=CARTESIAN_POINT('',(-32.1917587926719,16.,47.1399912896939));
#795=CARTESIAN_POINT('',(-32.1917587926719,16.,44.749151310844));
#796=CARTESIAN_POINT('',(-40.1917587926719,16.,39.139991289694));
#797=CARTESIAN_POINT('',(-40.1917587926719,16.,39.139991289694));
#798=CARTESIAN_POINT('',(-40.1917587926719,16.,39.139991289694));
#799=CARTESIAN_POINT('Origin',(-40.1917587926719,14.,71.139991289694));
#800=CARTESIAN_POINT('',(-32.1917587926719,7.,79.139991289694));
#801=CARTESIAN_POINT('',(-40.1917587926719,14.,71.139991289694));
#802=CARTESIAN_POINT('Origin',(-32.1917587926719,14.,47.1399912896939));
#803=CARTESIAN_POINT('',(-40.1917587926719,14.,39.139991289694));
#804=CARTESIAN_POINT('',(-32.1917587926719,7.,47.1399912896939));
#805=CARTESIAN_POINT('Origin',(-40.1917587926719,14.,39.139991289694));
#806=CARTESIAN_POINT('Origin',(-36.1917587926719,-14.,59.139991289694));
#807=CARTESIAN_POINT('',(-40.1917587926719,-14.,71.139991289694));
#808=CARTESIAN_POINT('',(-32.1917587926719,-14.,79.139991289694));
#809=CARTESIAN_POINT('',(-40.1917587926719,-14.,71.139991289694));
#810=CARTESIAN_POINT('',(-32.1917587926719,-14.,47.1399912896939));
#811=CARTESIAN_POINT('',(-32.1917587926719,-14.,44.749151310844));
#812=CARTESIAN_POINT('',(-40.1917587926719,-14.,39.139991289694));
#813=CARTESIAN_POINT('',(-40.1917587926719,-14.,39.139991289694));
#814=CARTESIAN_POINT('',(-40.1917587926719,-14.,39.139991289694));
#815=CARTESIAN_POINT('Origin',(-36.1917587926719,-16.,59.139991289694));
#816=CARTESIAN_POINT('',(-40.1917587926719,-16.,71.139991289694));
#817=CARTESIAN_POINT('',(-32.1917587926719,-16.,79.139991289694));
#818=CARTESIAN_POINT('',(-40.1917587926719,-16.,71.139991289694));
#819=CARTESIAN_POINT('',(-40.1917587926719,-16.,39.139991289694));
#820=CARTESIAN_POINT('',(-40.1917587926719,-16.,39.139991289694));
#821=CARTESIAN_POINT('',(-32.1917587926719,-16.,47.1399912896939));
#822=CARTESIAN_POINT('',(-40.1917587926719,-16.,39.139991289694));
#823=CARTESIAN_POINT('',(-32.1917587926719,-16.,44.749151310844));
#824=CARTESIAN_POINT('Origin',(-40.1917587926719,-14.,71.139991289694));
#825=CARTESIAN_POINT('',(-40.1917587926719,-14.,71.139991289694));
#826=CARTESIAN_POINT('',(-32.1917587926719,-7.,79.139991289694));
#827=CARTESIAN_POINT('Origin',(-32.1917587926719,-14.,47.1399912896939));
#828=CARTESIAN_POINT('',(-32.1917587926719,-7.,47.1399912896939));
#829=CARTESIAN_POINT('',(-40.1917587926719,-14.,39.139991289694));
#830=CARTESIAN_POINT('Origin',(-40.1917587926719,-14.,39.139991289694));
#831=CARTESIAN_POINT('Origin',(-32.1917587926719,0.,30.358311331994));
#832=CARTESIAN_POINT('',(-32.1917587926719,7.5,40.2578062686056));
#833=CARTESIAN_POINT('',(-32.1917587926719,7.5,27.8834375978411));
#834=CARTESIAN_POINT('',(-32.1917587926719,-7.5,40.2578062686056));
#835=CARTESIAN_POINT('',(-32.1917587926719,3.75,40.2578062686056));
#836=CARTESIAN_POINT('',(-32.1917587926719,-7.5,32.8331850661469));
#837=CARTESIAN_POINT('',(-32.1917587926719,-20.,82.139991289694));
#838=CARTESIAN_POINT('Origin',(-37.1415062609777,-7.5,35.3080588002998));
#839=CARTESIAN_POINT('',(-37.1415062609777,-7.5,35.3080588002998));
#840=CARTESIAN_POINT('Origin',(-37.1415062609777,7.5,35.3080588002998));
#841=CARTESIAN_POINT('',(-37.1415062609777,7.5,35.3080588002998));
#842=CARTESIAN_POINT('Origin',(-17.519293083051,-20.,70.3912869345749));
#843=CARTESIAN_POINT('Origin',(-27.2420113243661,7.5,25.4085638636881));
#844=UNCERTAINTY_MEASURE_WITH_UNIT(LENGTH_MEASURE(0.01),#848,
'DISTANCE_ACCURACY_VALUE',
'Maximum model space distance between geometric entities at asserted c
onnectivities');
#845=UNCERTAINTY_MEASURE_WITH_UNIT(LENGTH_MEASURE(0.01),#848,
'DISTANCE_ACCURACY_VALUE',
'Maximum model space distance between geometric entities at asserted c
onnectivities');
#846=(
GEOMETRIC_REPRESENTATION_CONTEXT(3)
GLOBAL_UNCERTAINTY_ASSIGNED_CONTEXT((#844))
GLOBAL_UNIT_ASSIGNED_CONTEXT((#848,#850,#851))
REPRESENTATION_CONTEXT('','3D')
);
#847=(
GEOMETRIC_REPRESENTATION_CONTEXT(3)
GLOBAL_UNCERTAINTY_ASSIGNED_CONTEXT((#845))
GLOBAL_UNIT_ASSIGNED_CONTEXT((#848,#850,#851))
REPRESENTATION_CONTEXT('','3D')
);
#848=(
LENGTH_UNIT()
NAMED_UNIT(*)
SI_UNIT(.MILLI.,.METRE.)
);
#849=(
LENGTH_UNIT()
NAMED_UNIT(*)
SI_UNIT($,.METRE.)
);
#850=(
NAMED_UNIT(*)
PLANE_ANGLE_UNIT()
SI_UNIT($,.RADIAN.)
);
#851=(
NAMED_UNIT(*)
SI_UNIT($,.STERADIAN.)
SOLID_ANGLE_UNIT()
);
#852=SHAPE_DEFINITION_REPRESENTATION(#853,#854);
#853=PRODUCT_DEFINITION_SHAPE('',$,#856);
#854=SHAPE_REPRESENTATION('',(#544),#846);
#855=PRODUCT_DEFINITION_CONTEXT('part definition',#860,'design');
#856=PRODUCT_DEFINITION('cap-2-00','cap-2-00',#857,#855);
#857=PRODUCT_DEFINITION_FORMATION('',$,#862);
#858=PRODUCT_RELATED_PRODUCT_CATEGORY('cap-2-00','cap-2-00',(#862));
#859=APPLICATION_PROTOCOL_DEFINITION('international standard',
'automotive_design',2009,#860);
#860=APPLICATION_CONTEXT(
'Core Data for Automotive Mechanical Design Process');
#861=PRODUCT_CONTEXT('part definition',#860,'mechanical');
#862=PRODUCT('cap-2-00','cap-2-00',$,(#861));
#863=PRESENTATION_STYLE_ASSIGNMENT((#864));
#864=SURFACE_STYLE_USAGE(.BOTH.,#865);
#865=SURFACE_SIDE_STYLE('',(#866));
#866=SURFACE_STYLE_FILL_AREA(#867);
#867=FILL_AREA_STYLE('Steel - Satin',(#868));
#868=FILL_AREA_STYLE_COLOUR('Steel - Satin',#869);
#869=COLOUR_RGB('Steel - Satin',0.627450980392157,0.627450980392157,0.627450980392157);
ENDSEC;
END-ISO-10303-21;
